<svg id="svg" version="1.1" xmlns="http://www.w3.org/2000/svg" xmlns:xlink="http://www.w3.org/1999/xlink" width="400" height="400" viewBox="0, 0, 400,400"><g id="svgg"><path id="path0" d="M196.484 59.398 C 191.267 62.222,190.350 68.044,194.441 72.369 L 196.232 74.263 193.379 83.150 L 190.526 92.037 174.430 92.270 C 165.577 92.398,151.750 92.612,143.704 92.745 L 129.074 92.988 128.031 90.729 C 124.402 82.876,112.639 85.549,112.601 94.235 C 112.591 96.512,113.719 98.944,115.412 100.295 C 116.102 100.846,116.667 101.503,116.667 101.755 C 116.667 102.116,97.484 168.798,96.845 170.657 C 96.744 170.952,94.316 169.356,90.365 166.397 L 84.047 161.667 84.337 160.185 C 85.130 156.147,83.926 152.745,81.025 150.825 C 78.714 149.296,74.150 149.333,71.889 150.900 C 63.306 156.849,71.519 169.633,80.689 164.597 C 81.577 164.109,82.494 163.825,82.726 163.965 C 84.926 165.292,95.926 173.915,95.814 174.225 C 95.733 174.448,92.692 184.921,89.055 197.500 C 82.783 219.196,82.400 220.370,81.592 220.370 C 80.591 220.370,80.561 220.492,81.289 221.604 C 81.794 222.375,81.623 223.184,79.119 231.847 L 76.400 241.254 74.404 241.665 C 72.069 242.146,70.497 242.921,69.395 244.131 C 63.003 251.159,71.029 261.014,79.560 256.614 L 81.816 255.450 86.834 258.740 C 89.594 260.549,91.852 262.166,91.852 262.332 C 91.852 262.498,89.343 266.333,86.277 270.854 L 80.702 279.074 99.703 279.259 L 118.704 279.444 127.407 285.148 C 132.194 288.285,136.331 291.052,136.599 291.297 C 136.992 291.657,136.453 292.197,133.836 294.070 L 130.584 296.396 128.903 295.461 C 120.120 290.580,111.415 301.850,118.972 308.318 C 125.385 313.808,135.014 307.289,132.124 299.414 C 131.829 298.608,138.308 293.545,139.630 293.549 C 139.935 293.551,152.722 301.711,168.045 311.683 L 195.905 329.815 195.675 330.926 C 194.136 338.345,200.786 343.786,207.377 340.501 C 210.873 338.759,212.572 334.772,211.391 331.080 L 210.828 329.320 211.988 328.237 C 216.067 324.428,269.010 281.085,269.265 281.346 C 269.622 281.710,274.074 294.185,274.074 294.820 C 274.074 295.047,273.567 295.660,272.947 296.182 C 265.689 302.289,273.569 313.687,282.108 309.432 C 289.503 305.747,287.128 295.050,278.722 294.183 L 276.787 293.983 274.319 287.070 C 272.962 283.268,271.852 279.957,271.852 279.711 C 271.852 279.368,277.366 279.243,295.577 279.169 L 319.302 279.074 310.729 266.343 C 303.688 255.886,302.245 253.529,302.652 253.152 C 302.925 252.899,306.126 250.233,309.765 247.228 L 316.381 241.763 318.098 242.632 C 320.367 243.780,323.640 243.811,325.741 242.704 C 333.242 238.753,330.395 227.407,321.903 227.407 L 320.079 227.407 319.107 224.980 C 318.218 222.760,318.183 222.483,318.697 221.749 C 319.488 220.620,319.405 220.371,318.241 220.369 C 317.239 220.368,317.026 219.885,305.077 190.508 C 298.397 174.085,293.002 160.578,293.088 160.493 C 293.173 160.407,298.391 160.235,304.682 160.111 L 316.120 159.885 317.232 162.058 C 321.189 169.797,332.746 167.320,332.726 158.738 C 332.705 149.706,320.728 147.310,317.059 155.605 L 316.304 157.311 304.230 157.585 C 297.566 157.736,292.014 157.716,291.841 157.540 C 291.500 157.195,268.519 100.873,268.519 100.383 C 268.519 100.219,268.920 99.822,269.410 99.501 C 271.064 98.417,272.352 95.115,272.120 92.554 C 271.405 84.671,261.211 82.431,256.985 89.229 L 255.885 90.998 244.517 91.237 C 213.011 91.900,193.704 91.980,193.708 91.446 C 193.711 91.160,194.850 87.343,196.239 82.963 L 198.766 75.000 200.614 74.771 C 209.413 73.679,211.116 62.651,203.045 59.026 C 200.476 57.872,199.164 57.947,196.484 59.398 M256.012 94.860 C 256.173 95.957,256.026 96.117,253.183 97.952 C 251.534 99.016,240.187 106.351,227.967 114.251 C 206.158 128.350,205.729 128.606,204.634 128.158 C 197.793 125.363,192.880 133.777,199.259 137.363 L 200.741 138.196 200.741 147.780 C 200.741 153.051,200.616 157.423,200.463 157.496 C 200.310 157.568,196.687 157.536,192.412 157.425 L 184.638 157.222 184.357 155.260 C 183.865 151.835,181.714 148.496,178.717 146.506 C 177.589 145.758,176.669 144.946,176.671 144.702 C 176.676 144.196,192.405 94.875,192.631 94.660 C 192.773 94.524,231.406 93.899,247.828 93.768 L 255.842 93.704 256.012 94.860 M189.623 94.907 C 189.619 94.958,186.077 106.052,181.752 119.560 L 173.889 144.119 170.914 144.191 C 158.971 144.480,153.341 158.748,161.887 167.071 C 162.885 168.043,164.035 168.944,164.443 169.074 C 164.900 169.219,165.175 169.620,165.160 170.118 C 165.120 171.378,160.190 185.007,159.796 184.946 C 159.603 184.916,156.004 183.852,151.798 182.580 L 144.152 180.269 143.925 178.848 C 143.622 176.954,141.807 174.931,139.966 174.435 C 139.170 174.221,138.518 173.927,138.516 173.782 C 138.515 173.637,135.184 157.435,131.113 137.778 C 124.417 105.442,123.770 102.002,124.327 101.667 C 126.010 100.652,127.800 98.671,128.362 97.199 L 128.990 95.556 132.180 95.503 C 133.935 95.474,141.787 95.339,149.630 95.204 C 164.987 94.939,189.634 94.756,189.623 94.907 M259.227 99.793 C 260.940 100.946,261.792 101.201,265.150 101.569 C 265.953 101.657,288.479 155.366,288.511 157.271 C 288.518 157.687,253.464 158.378,247.103 158.087 L 244.391 157.963 243.754 156.079 C 239.479 143.426,221.624 143.464,217.940 156.134 L 217.367 158.107 210.813 157.912 C 207.208 157.804,204.051 157.652,203.796 157.574 C 203.441 157.464,203.334 155.162,203.336 147.697 L 203.338 137.963 204.415 137.350 C 205.964 136.469,206.825 134.946,207.037 132.712 L 207.222 130.761 232.037 114.673 C 245.685 105.824,256.960 98.569,257.092 98.551 C 257.225 98.533,258.185 99.092,259.227 99.793 M121.111 102.394 C 121.111 102.489,124.452 118.731,128.535 138.489 L 135.959 174.411 134.519 175.851 C 129.241 181.129,136.928 188.876,142.377 183.770 L 143.519 182.700 151.296 185.099 C 155.574 186.418,159.116 187.533,159.167 187.576 C 159.218 187.619,158.243 190.665,157.000 194.344 L 154.741 201.034 152.622 200.842 C 149.860 200.592,147.117 201.396,144.117 203.334 L 141.788 204.840 128.950 195.274 C 121.888 190.013,112.327 182.882,107.701 179.428 C 102.779 175.752,99.285 172.894,99.275 172.535 C 99.259 171.897,119.082 103.178,119.459 102.569 C 119.673 102.222,121.111 102.070,121.111 102.394 M200.283 160.309 C 200.648 160.540,200.730 163.144,200.654 172.062 L 200.556 183.519 198.627 183.754 C 194.425 184.267,189.803 187.331,187.593 191.069 C 186.981 192.103,186.315 192.953,186.111 192.959 C 185.473 192.978,163.536 186.224,163.186 185.902 C 162.995 185.725,163.928 182.462,165.394 178.188 L 167.933 170.781 170.792 170.799 C 176.872 170.839,182.046 167.273,183.909 161.759 L 184.504 160.000 192.159 160.006 C 196.370 160.009,200.026 160.145,200.283 160.309 M215.664 160.603 C 217.290 160.825,217.368 160.893,217.602 162.278 C 218.608 168.231,224.216 172.977,230.508 173.200 L 233.519 173.307 235.469 179.869 C 236.542 183.478,237.292 186.553,237.136 186.701 C 236.980 186.849,232.269 188.326,226.667 189.982 C 221.065 191.639,216.284 193.062,216.042 193.143 C 215.800 193.225,215.156 192.531,214.610 191.600 C 212.512 188.020,209.406 185.461,205.706 184.266 L 203.819 183.656 203.576 176.398 C 203.443 172.406,203.333 167.167,203.333 164.755 L 203.333 160.370 208.652 160.370 C 211.577 160.370,214.733 160.475,215.664 160.603 M292.369 166.389 C 293.722 169.699,299.207 183.157,304.556 196.296 L 314.283 220.185 311.383 220.293 L 308.484 220.401 289.603 201.789 C 275.656 188.041,270.791 183.028,270.987 182.607 C 271.132 182.294,271.316 181.120,271.394 180.000 C 271.901 172.721,261.251 171.287,259.448 178.392 C 259.202 179.359,258.767 180.282,258.482 180.443 C 257.685 180.892,240.299 185.978,240.132 185.811 C 239.921 185.600,236.296 173.259,236.296 172.751 C 236.296 172.518,237.212 171.719,238.332 170.976 C 241.450 168.905,243.289 166.035,244.232 161.765 L 244.456 160.752 255.098 160.648 C 260.952 160.591,271.179 160.505,277.825 160.457 L 289.909 160.370 292.369 166.389 M120.432 192.184 L 140.308 207.083 139.341 209.190 C 138.155 211.776,138.001 216.296,139.019 218.668 C 139.360 219.463,139.581 220.173,139.509 220.244 C 139.437 220.316,127.205 220.332,112.327 220.280 L 85.276 220.185 91.347 199.259 C 94.686 187.750,97.592 177.696,97.805 176.917 L 98.191 175.501 99.374 176.393 C 100.024 176.883,109.500 183.989,120.432 192.184 M261.137 184.238 C 263.059 185.975,264.970 186.281,268.333 185.388 C 268.923 185.231,272.690 188.766,286.852 202.765 L 304.630 220.340 282.345 220.355 L 260.060 220.370 260.442 218.986 C 262.672 210.909,256.603 202.731,248.056 202.296 C 246.273 202.206,244.815 202.089,244.815 202.036 C 244.815 201.983,243.981 199.134,242.963 195.704 C 241.944 192.274,241.113 189.212,241.115 188.900 C 241.117 188.408,257.167 183.181,259.214 183.007 C 259.495 182.983,260.360 183.537,261.137 184.238 M172.199 191.527 C 177.610 193.181,182.810 194.765,183.754 195.047 L 185.472 195.559 185.620 199.354 C 185.786 203.612,186.663 206.112,188.873 208.629 C 190.329 210.287,190.510 209.874,185.829 215.556 L 182.014 220.185 172.914 220.284 L 163.814 220.383 164.539 218.247 C 166.433 212.664,163.723 205.455,158.717 202.759 C 157.047 201.860,156.928 202.417,161.665 188.981 C 161.892 188.338,161.321 188.200,172.199 191.527 M240.267 195.957 C 242.604 203.750,242.599 202.918,240.319 204.259 C 235.566 207.057,232.901 213.656,234.373 218.986 L 234.755 220.370 226.866 220.370 L 218.977 220.370 215.264 215.494 L 211.550 210.618 212.984 208.718 C 215.394 205.527,216.054 203.636,216.224 199.430 L 216.375 195.712 226.984 192.528 C 232.819 190.777,237.759 189.381,237.963 189.425 C 238.167 189.469,239.204 192.409,240.267 195.957 M199.518 214.325 C 202.388 214.566,205.104 214.094,207.599 212.921 C 208.528 212.484,209.349 212.190,209.424 212.267 C 209.500 212.344,210.895 214.157,212.525 216.296 L 215.489 220.185 200.650 220.282 C 192.488 220.335,185.734 220.302,185.639 220.207 C 185.545 220.113,186.273 219.069,187.257 217.888 C 188.242 216.707,189.765 214.876,190.643 213.820 L 192.239 211.899 194.603 213.005 C 196.184 213.745,197.813 214.182,199.518 214.325 M86.360 229.074 C 87.479 230.704,90.846 235.662,93.844 240.093 L 99.293 248.148 91.406 248.147 L 83.519 248.145 82.832 246.476 C 82.438 245.519,81.458 244.216,80.534 243.422 L 78.923 242.037 80.710 235.926 C 81.693 232.565,82.780 228.834,83.125 227.636 C 83.470 226.437,83.882 225.604,84.039 225.784 C 84.196 225.964,85.240 227.444,86.360 229.074 M316.963 226.786 C 317.686 228.785,317.503 229.119,316.312 227.978 C 315.438 227.140,315.291 226.791,315.584 226.242 C 316.114 225.254,316.458 225.389,316.963 226.786 M121.667 227.358 C 125.042 228.895,126.805 232.090,126.599 236.296 L 126.481 238.704 123.704 238.704 L 120.926 238.704 120.739 236.355 C 120.307 230.923,114.308 230.510,113.792 235.878 C 113.557 238.327,114.459 240.230,119.256 247.402 C 126.122 257.669,127.445 261.755,125.883 267.867 C 125.632 268.848,125.279 269.315,124.673 269.467 C 124.033 269.627,123.856 269.887,123.971 270.492 C 124.513 273.328,115.907 274.433,112.017 272.027 C 109.613 270.540,108.205 268.225,107.693 264.918 C 107.033 260.653,107.222 260.370,110.741 260.370 C 114.073 260.370,113.888 260.174,114.187 264.012 C 114.448 267.348,117.485 268.950,119.790 266.968 C 122.214 264.882,120.912 260.855,114.874 251.760 C 108.485 242.138,106.940 237.222,108.720 232.176 C 110.383 227.460,116.716 225.103,121.667 227.358 M137.749 227.517 C 137.927 227.985,138.083 232.110,138.097 236.684 C 138.110 241.258,138.127 245.215,138.134 245.477 C 138.145 245.838,138.941 245.929,141.389 245.848 L 144.630 245.741 144.729 236.394 L 144.828 227.048 145.773 226.811 C 147.077 226.483,150.058 226.937,150.678 227.557 C 151.274 228.153,151.535 248.098,151.150 263.704 L 150.926 272.778 147.963 272.778 L 145.000 272.778 144.934 268.333 C 144.898 265.889,144.856 261.264,144.842 258.056 L 144.815 252.222 141.481 252.222 L 138.148 252.222 138.129 254.167 C 138.118 255.236,138.115 259.482,138.123 263.602 C 138.141 273.251,138.228 273.025,134.540 272.886 L 131.667 272.778 131.557 267.407 C 131.429 261.167,131.617 259.640,132.517 259.605 C 132.980 259.586,132.911 259.466,132.260 259.153 L 131.372 258.727 131.572 243.246 C 131.720 231.786,131.890 227.622,132.227 227.216 C 133.048 226.228,137.348 226.462,137.749 227.517 M234.454 227.426 C 234.858 228.181,235.195 242.816,235.188 259.341 L 235.185 267.016 240.093 267.119 L 245.000 267.222 245.343 268.999 C 245.557 270.106,245.554 271.153,245.334 271.777 L 244.982 272.778 237.028 272.778 L 229.074 272.778 228.849 270.741 C 228.418 266.830,228.499 227.693,228.939 227.162 C 229.659 226.294,233.959 226.500,234.454 227.426 M262.529 227.238 C 265.233 228.041,267.806 231.286,267.446 233.441 C 267.419 233.602,267.549 234.019,267.734 234.367 C 268.292 235.416,268.691 264.405,268.177 266.532 C 266.150 274.916,253.855 276.103,249.529 268.333 C 248.510 266.503,248.220 235.488,249.192 232.273 C 250.603 227.607,256.401 225.418,262.529 227.238 M288.422 228.013 C 290.853 229.513,292.456 232.241,292.802 235.468 C 293.157 238.784,292.934 239.049,289.680 239.183 C 286.651 239.307,286.296 238.947,286.296 235.744 C 286.296 233.748,285.078 232.586,283.006 232.604 C 279.763 232.633,279.644 233.188,279.620 248.516 C 279.607 256.786,279.465 261.540,279.226 261.687 C 278.997 261.829,278.984 262.084,279.191 262.348 C 279.377 262.584,279.621 263.499,279.733 264.381 C 280.360 269.311,286.296 268.464,286.296 263.444 C 286.296 260.363,286.625 260.000,289.412 260.000 C 292.502 260.000,292.704 260.271,292.538 264.188 C 292.090 274.777,277.608 277.250,273.831 267.382 C 272.793 264.671,272.939 235.143,274.001 232.882 C 274.411 232.010,274.858 230.915,274.995 230.449 C 275.967 227.138,284.495 225.591,288.422 228.013 M170.324 227.371 C 170.966 227.777,171.528 230.985,173.153 243.519 C 173.866 249.019,175.031 257.743,175.743 262.906 C 177.235 273.735,177.366 272.963,174.033 272.963 L 171.444 272.963 170.907 271.679 C 170.612 270.972,170.370 269.833,170.370 269.148 C 170.370 268.462,170.210 266.999,170.013 265.895 C 169.817 264.792,169.559 263.264,169.441 262.500 L 169.226 261.111 166.116 261.111 C 162.352 261.111,162.661 260.673,161.699 267.375 L 160.924 272.778 158.147 272.778 C 155.199 272.778,154.609 272.276,155.391 270.436 C 155.536 270.094,155.625 269.231,155.590 268.519 C 155.554 267.806,155.875 265.306,156.304 262.963 C 156.732 260.620,157.145 257.856,157.222 256.820 C 157.298 255.785,157.630 253.451,157.958 251.635 C 158.287 249.819,158.804 246.500,159.107 244.259 C 160.460 234.258,161.500 228.017,161.890 227.546 C 162.375 226.963,169.447 226.815,170.324 227.371 M193.622 227.472 C 200.880 229.300,202.720 244.955,196.437 251.427 L 194.154 253.779 195.365 256.797 C 196.031 258.457,197.500 262.087,198.629 264.864 C 202.090 273.377,202.095 273.333,197.625 273.333 C 194.435 273.333,194.848 274.101,189.197 257.685 C 187.261 252.059,186.964 252.901,187.076 263.698 C 187.187 274.410,187.539 273.248,184.144 273.387 C 180.685 273.528,180.757 273.668,180.742 266.852 C 180.673 236.136,180.758 228.019,181.150 227.546 C 181.693 226.891,191.093 226.835,193.622 227.472 M218.463 227.525 C 218.880 228.028,219.526 231.902,220.544 240.000 C 220.864 242.546,221.973 250.757,223.008 258.246 C 225.191 274.034,225.273 272.963,221.877 272.963 C 218.753 272.963,218.725 272.929,218.129 268.298 C 217.895 266.484,217.596 264.167,217.463 263.148 L 217.222 261.296 214.109 261.188 C 210.232 261.053,210.511 260.688,209.615 267.052 C 208.729 273.343,208.939 273.029,205.704 272.889 L 203.148 272.778 203.218 271.481 C 203.491 266.428,204.503 259.323,205.084 258.383 C 205.220 258.163,205.287 257.385,205.235 256.653 C 205.134 255.267,206.165 248.657,206.587 247.981 C 206.720 247.767,206.786 247.259,206.733 246.852 C 206.577 245.640,209.284 228.009,209.704 227.503 C 210.259 226.834,217.905 226.854,218.463 227.525 M314.599 229.966 C 315.195 230.624,315.197 230.754,314.637 231.838 C 313.732 233.588,313.543 236.224,314.189 238.081 L 314.745 239.680 308.185 245.144 C 300.339 251.680,300.756 251.399,300.146 250.564 C 299.701 249.956,312.904 229.262,313.739 229.260 C 313.860 229.260,314.247 229.577,314.599 229.966 M256.685 232.501 C 254.895 233.408,254.791 234.083,254.848 244.444 C 254.937 260.541,255.253 266.271,256.083 266.878 C 257.892 268.199,260.958 267.869,261.730 266.269 C 262.338 265.010,261.765 234.700,261.106 233.272 C 260.404 231.752,258.737 231.461,256.685 232.501 M186.927 233.241 C 186.842 233.394,186.854 236.829,186.954 240.874 L 187.135 248.230 189.313 248.073 C 193.051 247.802,193.496 247.215,193.632 242.368 C 193.845 234.775,192.977 232.963,189.124 232.963 C 188.000 232.963,187.011 233.088,186.927 233.241 M213.926 237.086 C 212.855 242.177,212.533 244.063,212.568 245.041 C 212.590 245.675,212.355 247.882,212.045 249.946 C 211.150 255.907,211.023 255.556,214.074 255.556 C 217.017 255.556,216.900 255.739,216.302 252.037 C 216.105 250.815,215.603 246.825,215.186 243.171 C 214.409 236.355,214.245 235.566,213.926 237.086 M165.926 237.423 C 165.926 237.839,165.648 239.464,165.307 241.034 C 164.967 242.604,164.712 244.306,164.740 244.815 C 164.768 245.324,164.546 247.454,164.247 249.548 C 163.948 251.642,163.704 253.851,163.704 254.456 L 163.704 255.556 166.296 255.556 C 167.722 255.556,168.888 255.431,168.886 255.278 C 168.885 255.125,168.713 253.948,168.504 252.662 C 168.136 250.392,166.681 238.060,166.671 237.130 C 166.669 236.875,166.500 236.667,166.296 236.667 C 166.093 236.667,165.926 237.007,165.926 237.423 M99.630 250.956 C 99.630 251.703,93.525 259.935,93.139 259.709 C 84.658 254.732,82.573 252.835,83.592 251.019 C 83.772 250.696,99.630 250.634,99.630 250.956 M154.057 279.537 C 154.034 279.917,139.996 289.754,139.484 289.749 C 139.015 289.745,123.704 279.758,123.704 279.457 C 123.704 279.348,130.537 279.259,138.889 279.259 C 147.241 279.259,154.066 279.384,154.057 279.537 M224.815 279.402 C 224.815 279.480,220.506 289.772,215.240 302.272 L 205.666 325.000 203.420 325.252 C 201.217 325.499,199.304 326.231,198.094 327.289 C 197.476 327.830,142.018 292.223,142.301 291.466 C 142.400 291.200,151.635 284.540,156.988 280.874 L 159.345 279.259 192.080 279.259 C 210.084 279.259,224.815 279.323,224.815 279.402 M266.101 279.953 C 264.015 281.933,209.193 327.037,208.872 327.037 C 207.835 327.037,208.828 324.375,217.800 303.121 C 223.125 290.506,227.566 279.977,227.669 279.722 C 227.816 279.360,232.102 279.259,247.344 279.259 C 266.401 279.259,266.815 279.275,266.101 279.953 " stroke="none" fill="#1066b4" fill-rule="evenodd"></path><path id="path1" d="M113.148 227.194 C 105.805 230.488,106.403 239.003,114.874 251.760 C 120.912 260.855,122.214 264.882,119.790 266.968 C 117.485 268.950,114.448 267.348,114.187 264.012 C 113.888 260.174,114.073 260.370,110.741 260.370 C 107.222 260.370,107.033 260.653,107.693 264.918 C 108.205 268.225,109.613 270.540,112.017 272.027 C 115.907 274.433,124.513 273.328,123.971 270.492 C 123.856 269.887,124.033 269.627,124.673 269.467 C 125.279 269.315,125.632 268.848,125.883 267.867 C 127.445 261.755,126.122 257.669,119.256 247.402 C 114.459 240.230,113.557 238.327,113.792 235.878 C 114.308 230.510,120.307 230.923,120.739 236.355 L 120.926 238.704 123.704 238.704 L 126.481 238.704 126.599 236.296 C 126.949 229.158,119.702 224.254,113.148 227.194 M132.227 227.216 C 131.890 227.622,131.720 231.786,131.572 243.246 L 131.372 258.727 132.260 259.153 C 132.911 259.466,132.980 259.586,132.517 259.605 C 131.617 259.640,131.429 261.167,131.557 267.407 L 131.667 272.778 134.540 272.886 C 138.228 273.025,138.141 273.251,138.123 263.602 C 138.115 259.482,138.118 255.236,138.129 254.167 L 138.148 252.222 141.481 252.222 L 144.815 252.222 144.842 258.056 C 144.856 261.264,144.898 265.889,144.934 268.333 L 145.000 272.778 147.963 272.778 L 150.926 272.778 151.150 263.704 C 151.535 248.098,151.274 228.153,150.678 227.557 C 150.058 226.937,147.077 226.483,145.773 226.811 L 144.828 227.048 144.729 236.394 L 144.630 245.741 141.389 245.848 C 138.941 245.929,138.145 245.838,138.134 245.477 C 138.127 245.215,138.110 241.258,138.097 236.684 C 138.067 226.416,138.143 226.667,135.055 226.667 C 133.411 226.667,132.543 226.835,132.227 227.216 M228.939 227.162 C 228.499 227.693,228.418 266.830,228.849 270.741 L 229.074 272.778 237.028 272.778 L 244.982 272.778 245.334 271.777 C 245.554 271.153,245.557 270.106,245.343 268.999 L 245.000 267.222 240.093 267.119 L 235.185 267.016 235.188 259.341 C 235.195 242.816,234.858 228.181,234.454 227.426 C 233.959 226.500,229.659 226.294,228.939 227.162 M253.889 227.223 C 251.972 227.901,249.811 230.225,249.192 232.273 C 248.220 235.488,248.510 266.503,249.529 268.333 C 253.855 276.103,266.150 274.916,268.177 266.532 C 268.691 264.405,268.292 235.416,267.734 234.367 C 267.549 234.019,267.419 233.602,267.446 233.441 C 268.223 228.784,260.060 225.040,253.889 227.223 M279.659 227.253 C 277.259 228.126,275.279 229.483,274.995 230.449 C 274.858 230.915,274.411 232.010,274.001 232.882 C 272.939 235.143,272.793 264.671,273.831 267.382 C 277.608 277.250,292.090 274.777,292.538 264.188 C 292.704 260.271,292.502 260.000,289.412 260.000 C 286.625 260.000,286.296 260.363,286.296 263.444 C 286.296 268.464,280.360 269.311,279.733 264.381 C 279.621 263.499,279.377 262.584,279.191 262.348 C 278.984 262.084,278.997 261.829,279.226 261.687 C 279.465 261.540,279.607 256.786,279.620 248.516 C 279.644 233.188,279.763 232.633,283.006 232.604 C 285.078 232.586,286.296 233.748,286.296 235.744 C 286.296 238.947,286.651 239.307,289.680 239.183 C 292.934 239.049,293.157 238.784,292.802 235.468 C 292.095 228.868,285.886 224.987,279.659 227.253 M161.890 227.546 C 161.500 228.017,160.460 234.258,159.107 244.259 C 158.804 246.500,158.287 249.819,157.958 251.635 C 157.630 253.451,157.298 255.785,157.222 256.820 C 157.145 257.856,156.732 260.620,156.304 262.963 C 155.875 265.306,155.554 267.806,155.590 268.519 C 155.625 269.231,155.536 270.094,155.391 270.436 C 154.609 272.276,155.199 272.778,158.147 272.778 L 160.924 272.778 161.699 267.375 C 162.661 260.673,162.352 261.111,166.116 261.111 L 169.226 261.111 169.441 262.500 C 169.559 263.264,169.817 264.792,170.013 265.895 C 170.210 266.999,170.370 268.462,170.370 269.148 C 170.370 269.833,170.612 270.972,170.907 271.679 L 171.444 272.963 174.033 272.963 C 177.366 272.963,177.235 273.735,175.743 262.906 C 175.031 257.743,173.866 249.019,173.153 243.519 C 171.528 230.985,170.966 227.777,170.324 227.371 C 169.447 226.815,162.375 226.963,161.890 227.546 M181.150 227.546 C 180.758 228.019,180.673 236.136,180.742 266.852 C 180.757 273.668,180.685 273.528,184.144 273.387 C 187.539 273.248,187.187 274.410,187.076 263.698 C 186.964 252.901,187.261 252.059,189.197 257.685 C 194.848 274.101,194.435 273.333,197.625 273.333 C 202.095 273.333,202.090 273.377,198.629 264.864 C 197.500 262.087,196.031 258.457,195.365 256.797 L 194.154 253.779 196.437 251.427 C 199.238 248.542,199.626 247.439,199.891 241.623 C 200.277 233.164,198.275 228.644,193.622 227.472 C 191.093 226.835,181.693 226.891,181.150 227.546 M209.704 227.503 C 209.284 228.009,206.577 245.640,206.733 246.852 C 206.786 247.259,206.720 247.767,206.587 247.981 C 206.165 248.657,205.134 255.267,205.235 256.653 C 205.287 257.385,205.220 258.163,205.084 258.383 C 204.503 259.323,203.491 266.428,203.218 271.481 L 203.148 272.778 205.704 272.889 C 208.939 273.029,208.729 273.343,209.615 267.052 C 210.511 260.688,210.232 261.053,214.109 261.188 L 217.222 261.296 217.463 263.148 C 217.596 264.167,217.895 266.484,218.129 268.298 C 218.725 272.929,218.753 272.963,221.877 272.963 C 225.273 272.963,225.191 274.034,223.008 258.246 C 221.973 250.757,220.864 242.546,220.544 240.000 C 219.526 231.902,218.880 228.028,218.463 227.525 C 217.905 226.854,210.259 226.834,209.704 227.503 M259.862 232.073 C 260.296 232.190,260.856 232.729,261.106 233.272 C 261.765 234.700,262.338 265.010,261.730 266.269 C 260.958 267.869,257.892 268.199,256.083 266.878 C 255.077 266.143,254.216 237.491,255.103 234.259 C 255.561 232.591,257.858 231.536,259.862 232.073 M192.219 234.014 C 193.512 235.307,193.785 236.920,193.632 242.368 C 193.496 247.215,193.051 247.802,189.313 248.073 L 187.135 248.230 186.954 240.874 C 186.854 236.829,186.842 233.394,186.927 233.241 C 187.381 232.422,191.182 232.977,192.219 234.014 M215.186 243.171 C 215.603 246.825,216.105 250.815,216.302 252.037 C 216.900 255.739,217.017 255.556,214.074 255.556 C 211.023 255.556,211.150 255.907,212.045 249.946 C 212.355 247.882,212.590 245.675,212.568 245.041 C 212.533 244.063,212.855 242.177,213.926 237.086 C 214.245 235.566,214.409 236.355,215.186 243.171 M166.671 237.130 C 166.681 238.060,168.136 250.392,168.504 252.662 C 168.713 253.948,168.885 255.125,168.886 255.278 C 168.888 255.431,167.722 255.556,166.296 255.556 L 163.704 255.556 163.704 254.456 C 163.704 253.851,163.948 251.642,164.247 249.548 C 164.546 247.454,164.768 245.324,164.740 244.815 C 164.712 244.306,164.967 242.604,165.307 241.034 C 165.648 239.464,165.926 237.839,165.926 237.423 C 165.926 237.007,166.093 236.667,166.296 236.667 C 166.500 236.667,166.669 236.875,166.671 237.130 " stroke="none" fill="#ed9a28" fill-rule="evenodd"></path><path id="path2" d="M0.000 200.000 L 0.000 400.000 200.000 400.000 L 400.000 400.000 400.000 200.000 L 400.000 0.000 200.000 0.000 L 0.000 0.000 0.000 200.000 M203.651 58.862 C 211.590 62.912,208.971 75.167,200.164 75.183 L 199.031 75.185 196.394 83.391 L 193.757 91.596 210.860 91.353 C 220.267 91.219,234.269 91.001,241.975 90.868 L 255.988 90.626 256.302 89.799 C 257.349 87.046,260.764 84.836,263.993 84.823 C 271.639 84.791,275.191 93.476,269.966 99.426 L 268.836 100.714 280.209 128.658 C 286.465 144.028,291.693 156.779,291.826 156.996 C 291.994 157.268,295.790 157.316,304.155 157.154 L 316.241 156.919 316.852 155.318 C 320.126 146.745,332.963 149.488,332.963 158.760 C 332.963 168.083,319.537 170.365,316.624 161.537 L 316.208 160.276 304.863 160.546 C 298.624 160.695,293.482 160.850,293.438 160.890 C 293.393 160.931,298.798 174.330,305.449 190.667 C 317.449 220.145,317.548 220.370,318.585 220.370 C 319.798 220.370,319.830 220.461,319.039 221.668 C 318.489 222.508,318.508 222.720,319.315 224.803 L 320.181 227.037 322.237 227.037 C 329.554 227.037,333.108 236.186,327.838 241.456 C 325.061 244.234,321.048 244.832,317.852 242.946 C 316.777 242.312,316.467 242.268,315.897 242.671 C 314.547 243.622,302.626 253.523,302.613 253.704 C 302.606 253.806,306.494 259.639,311.253 266.667 L 319.905 279.444 296.064 279.540 C 277.352 279.615,272.226 279.734,272.240 280.095 C 272.250 280.348,273.306 283.472,274.588 287.037 L 276.918 293.519 278.737 293.757 C 289.748 295.198,289.349 310.556,278.300 310.556 C 270.519 310.556,266.984 301.412,272.673 296.003 L 273.956 294.784 271.789 288.649 C 270.597 285.274,269.484 282.267,269.316 281.966 C 269.079 281.543,262.420 286.872,240.086 305.356 L 211.162 329.294 211.548 330.401 C 212.247 332.407,211.777 336.368,210.636 338.093 C 205.681 345.580,194.382 341.220,195.318 332.183 L 195.533 330.107 167.562 311.856 L 139.591 293.606 137.851 294.839 C 136.894 295.518,135.257 296.696,134.213 297.458 L 132.315 298.844 132.699 300.525 C 134.624 308.936,123.700 314.380,118.079 307.813 C 111.859 300.547,120.484 290.163,128.726 294.994 C 129.668 295.545,130.578 295.843,130.839 295.684 C 131.090 295.531,132.484 294.555,133.935 293.516 L 136.574 291.627 127.361 285.628 L 118.148 279.630 99.219 279.630 C 82.721 279.630,80.318 279.560,80.500 279.085 C 80.615 278.786,83.067 275.088,85.949 270.866 C 88.831 266.645,91.270 262.980,91.369 262.721 C 91.781 261.648,81.818 255.770,80.759 256.461 C 74.730 260.397,67.531 257.254,67.100 250.496 C 66.773 245.360,70.440 241.123,75.222 241.113 C 76.643 241.110,81.940 223.163,80.962 221.670 C 80.183 220.481,80.209 220.370,81.268 220.370 C 81.955 220.370,82.254 220.089,82.546 219.167 C 83.874 214.968,95.600 174.000,95.497 173.916 C 95.427 173.859,92.437 171.620,88.851 168.939 L 82.332 164.065 80.518 165.084 C 71.328 170.247,62.999 156.370,71.794 150.550 C 78.334 146.222,87.271 153.108,84.528 160.362 C 84.185 161.269,95.919 170.871,96.572 170.218 C 96.689 170.102,101.233 154.645,106.671 135.870 L 116.558 101.734 115.294 100.624 C 109.052 95.144,113.668 84.587,121.818 85.704 C 125.016 86.142,128.889 89.579,128.889 91.978 C 128.889 92.678,129.123 92.692,136.574 92.464 C 140.801 92.335,154.154 92.119,166.247 91.985 C 178.340 91.851,188.751 91.635,189.381 91.506 C 190.517 91.274,190.550 91.198,193.247 82.783 L 195.967 74.294 194.684 73.165 C 187.371 66.736,195.056 54.477,203.651 58.862 M218.148 94.547 C 204.398 94.734,193.014 95.013,192.851 95.167 C 192.501 95.496,177.031 143.817,177.050 144.521 C 177.058 144.784,177.933 145.584,178.995 146.298 C 181.540 148.010,183.849 151.441,184.535 154.530 L 185.051 156.852 192.711 156.952 L 200.370 157.052 200.369 147.693 L 200.368 138.333 198.980 137.593 C 192.799 134.293,197.949 124.623,204.286 127.630 C 205.796 128.347,202.177 130.494,232.407 110.945 C 259.384 93.500,256.053 95.798,255.750 94.843 C 255.467 93.954,259.407 93.985,218.148 94.547 M152.593 95.574 C 144.750 95.710,136.222 95.844,133.641 95.873 L 128.948 95.926 128.695 97.078 C 128.448 98.202,125.496 101.601,124.501 101.907 C 124.024 102.054,138.035 171.834,138.839 173.314 C 139.000 173.609,139.602 173.977,140.179 174.131 C 141.824 174.571,143.686 176.610,143.950 178.261 C 144.105 179.232,144.430 179.799,144.960 180.021 C 146.355 180.606,159.126 184.445,159.663 184.440 C 160.009 184.438,161.021 181.996,162.657 177.216 L 165.128 169.997 163.548 168.909 C 152.569 161.355,157.278 144.657,170.647 143.740 L 173.870 143.519 181.560 119.444 C 185.789 106.204,189.251 95.329,189.254 95.278 C 189.262 95.133,168.349 95.303,152.593 95.574 M232.392 114.920 L 207.593 130.951 207.349 132.934 C 207.081 135.112,206.272 136.461,204.554 137.593 L 203.428 138.333 203.614 147.778 C 203.717 152.972,203.820 157.246,203.845 157.276 C 204.251 157.766,217.407 157.498,217.407 156.999 C 217.407 155.696,220.079 151.104,221.632 149.737 C 229.373 142.923,241.334 146.324,244.076 156.119 L 244.562 157.853 266.448 157.585 C 278.485 157.438,288.351 157.296,288.373 157.270 C 288.395 157.244,284.808 148.389,280.401 137.593 C 275.994 126.796,270.914 114.338,269.112 109.907 L 265.835 101.852 264.121 101.848 C 262.302 101.844,259.076 100.567,258.195 99.503 C 257.916 99.165,257.576 98.889,257.439 98.889 C 257.303 98.889,246.032 106.103,232.392 114.920 M118.760 105.627 C 118.249 107.319,113.812 122.620,108.900 139.630 C 103.988 156.639,99.816 171.019,99.629 171.585 C 99.294 172.604,99.495 172.767,120.516 188.533 L 141.741 204.453 144.189 202.811 C 146.898 200.995,149.542 200.251,152.690 200.420 L 154.630 200.524 156.764 194.279 C 157.938 190.844,158.843 187.979,158.777 187.912 C 158.555 187.690,144.111 183.333,143.597 183.333 C 143.319 183.333,142.705 183.745,142.232 184.249 C 138.819 187.881,132.593 185.014,132.593 179.809 C 132.593 177.843,132.977 176.952,134.540 175.300 L 135.657 174.119 128.288 138.453 C 120.083 98.742,120.453 100.013,118.760 105.627 M184.441 160.796 C 184.406 165.602,177.284 171.127,170.975 171.243 L 168.061 171.296 165.697 178.102 C 164.397 181.845,163.335 185.095,163.336 185.324 C 163.339 185.723,186.167 192.883,186.415 192.562 C 186.481 192.477,186.967 191.652,187.495 190.728 C 189.893 186.537,195.728 183.061,200.521 182.969 C 200.900 182.962,200.565 161.182,200.179 160.796 C 199.651 160.268,184.445 160.267,184.441 160.796 M203.704 172.023 L 203.704 183.305 205.276 183.728 C 208.946 184.716,212.578 187.569,214.505 190.979 L 215.581 192.883 219.735 191.634 C 222.020 190.947,226.847 189.515,230.463 188.451 C 234.079 187.388,237.031 186.343,237.023 186.129 C 237.016 185.916,236.211 183.074,235.236 179.815 L 233.461 173.889 230.495 173.666 C 224.125 173.187,219.146 169.158,217.643 163.265 L 217.141 161.296 214.959 161.059 C 213.760 160.928,210.736 160.803,208.241 160.781 L 203.704 160.741 203.704 172.023 M257.176 161.018 L 244.538 161.121 244.297 162.628 C 243.776 165.886,241.292 169.480,238.159 171.511 L 236.388 172.658 237.638 176.792 C 238.325 179.066,239.165 181.926,239.503 183.148 C 239.842 184.370,240.149 185.413,240.185 185.465 C 240.244 185.549,243.398 184.627,255.761 180.916 L 258.744 180.021 259.207 178.211 C 261.557 169.042,273.439 173.385,271.435 182.680 C 271.338 183.127,277.023 188.953,290.133 201.846 L 308.970 220.370 311.527 220.370 L 314.084 220.370 313.587 219.167 C 313.313 218.505,307.853 205.088,301.452 189.353 L 289.815 160.743 279.815 160.829 C 274.315 160.877,264.127 160.962,257.176 161.018 M98.148 176.510 C 98.148 176.671,86.778 216.142,85.701 219.722 C 85.516 220.335,86.960 220.370,112.422 220.370 C 137.141 220.370,139.320 220.321,139.107 219.767 C 137.889 216.593,137.901 211.694,139.135 208.889 L 139.867 207.222 119.286 191.768 C 100.022 177.305,98.148 175.952,98.148 176.510 M250.556 185.955 C 245.870 187.364,241.849 188.588,241.619 188.674 C 241.342 188.778,241.843 190.983,243.113 195.249 L 245.025 201.667 248.161 201.863 C 256.862 202.409,262.981 210.984,260.641 219.352 L 260.356 220.370 282.303 220.370 L 304.249 220.370 287.267 203.631 C 267.972 184.612,268.809 185.374,267.813 185.907 C 265.877 186.943,262.526 186.176,260.769 184.294 C 259.646 183.093,260.565 182.944,250.556 185.955 M159.870 195.065 C 157.364 202.504,157.395 201.475,159.631 202.998 C 164.458 206.284,166.740 213.342,164.738 218.796 L 164.161 220.370 172.804 220.370 L 181.446 220.370 185.538 215.342 L 189.630 210.314 188.166 208.270 C 186.115 205.405,185.395 203.060,185.382 199.194 L 185.370 195.981 174.259 192.568 C 168.148 190.690,162.883 189.082,162.559 188.994 C 162.091 188.866,161.537 190.119,159.870 195.065 M227.315 192.889 L 216.667 196.053 216.667 198.728 C 216.667 202.306,215.589 205.666,213.557 208.427 L 211.936 210.628 215.652 215.499 L 219.367 220.370 226.945 220.370 C 234.018 220.370,234.506 220.327,234.255 219.722 C 232.040 214.381,235.348 206.609,241.324 203.115 C 241.955 202.746,239.463 192.417,238.194 190.140 C 238.037 189.858,234.560 190.736,227.315 192.889 M189.054 216.230 L 185.838 220.185 193.314 220.286 C 197.426 220.341,204.021 220.341,207.970 220.286 L 215.150 220.185 212.255 216.481 C 210.662 214.444,209.212 212.820,209.032 212.872 C 208.851 212.923,207.537 213.377,206.111 213.880 C 201.956 215.347,196.947 214.982,193.450 212.958 L 192.270 212.276 189.054 216.230 M315.825 226.395 C 315.701 226.719,315.916 227.249,316.321 227.615 C 317.192 228.403,317.349 227.606,316.541 226.500 C 316.112 225.913,316.015 225.899,315.825 226.395 M83.704 226.472 C 83.704 226.569,82.700 230.086,81.473 234.288 L 79.242 241.929 80.875 243.366 C 81.773 244.156,82.775 245.472,83.103 246.290 L 83.698 247.778 91.139 247.778 C 95.591 247.778,98.531 247.639,98.457 247.432 C 97.857 245.750,83.704 225.643,83.704 226.472 M306.691 239.862 C 300.030 249.763,298.712 252.406,301.564 250.140 C 311.537 242.219,314.400 239.562,314.022 238.582 C 313.458 237.122,313.549 233.681,314.191 232.143 C 314.702 230.920,314.697 230.751,314.136 230.256 C 313.573 229.761,312.912 230.615,306.691 239.862 M83.704 251.451 C 83.704 251.638,83.611 252.033,83.497 252.329 C 83.322 252.786,92.020 259.009,93.325 259.360 C 93.592 259.432,96.318 255.750,98.680 252.130 L 99.344 251.111 91.524 251.111 C 87.022 251.111,83.704 251.255,83.704 251.451 M129.444 283.020 C 132.296 284.881,135.734 287.115,137.083 287.984 L 139.536 289.565 146.342 284.740 C 150.085 282.087,153.218 279.851,153.302 279.773 C 153.387 279.694,146.887 279.631,138.858 279.633 L 124.259 279.636 129.444 283.020 M151.433 285.205 C 147.080 288.272,143.325 290.980,143.088 291.224 C 142.757 291.565,148.983 295.790,170.071 309.537 L 197.485 327.408 198.569 326.496 C 199.836 325.429,201.787 324.820,203.942 324.817 C 204.823 324.816,205.555 324.618,205.660 324.352 C 205.762 324.097,209.962 314.139,214.994 302.222 C 220.026 290.306,224.229 280.347,224.333 280.093 C 224.485 279.724,217.861 279.630,191.936 279.630 L 159.348 279.630 151.433 285.205 M218.414 302.327 C 208.556 325.745,208.192 326.667,208.786 326.667 C 209.120 326.667,262.860 282.394,264.806 280.515 L 265.724 279.630 246.843 279.635 L 227.963 279.641 218.414 302.327 " stroke="none" fill="#dbf3fb" fill-rule="evenodd"></path><path id="path3" d="M196.598 58.902 C 195.847 59.298,195.145 59.765,195.037 59.939 C 194.853 60.238,198.057 58.734,198.456 58.334 C 198.868 57.922,197.884 58.223,196.598 58.902 M208.234 66.667 C 208.234 67.380,208.310 67.671,208.403 67.315 C 208.497 66.958,208.497 66.375,208.403 66.019 C 208.310 65.662,208.234 65.954,208.234 66.667 M194.074 72.407 C 194.765 73.120,195.414 73.704,195.516 73.704 C 195.618 73.704,195.135 73.120,194.444 72.407 C 193.753 71.694,193.105 71.111,193.003 71.111 C 192.901 71.111,193.383 71.694,194.074 72.407 M198.765 75.062 C 198.630 75.198,198.521 75.489,198.524 75.710 C 198.528 75.973,198.624 75.964,198.803 75.682 C 198.953 75.445,199.576 75.179,200.186 75.089 L 201.296 74.926 200.154 74.870 C 199.526 74.840,198.901 74.926,198.765 75.062 M263.056 85.080 C 263.616 85.165,264.532 85.165,265.093 85.080 C 265.653 84.995,265.194 84.926,264.074 84.926 C 262.954 84.926,262.495 84.995,263.056 85.080 M117.778 86.313 C 117.372 86.588,117.522 86.622,118.333 86.441 C 119.695 86.136,119.991 85.924,119.043 85.932 C 118.653 85.935,118.083 86.106,117.778 86.313 M250.278 91.014 C 251.347 91.089,253.097 91.089,254.167 91.014 C 255.236 90.939,254.361 90.878,252.222 90.878 C 250.083 90.878,249.208 90.939,250.278 91.014 M227.849 91.388 C 230.434 91.451,234.767 91.451,237.478 91.388 C 240.189 91.325,238.074 91.273,232.778 91.272 C 227.481 91.272,225.263 91.324,227.849 91.388 M181.481 91.852 L 172.407 92.057 181.367 92.140 C 187.032 92.192,190.411 92.086,190.556 91.852 C 190.681 91.648,190.733 91.519,190.670 91.564 C 190.607 91.610,186.472 91.739,181.481 91.852 M202.500 91.758 C 205.199 91.822,209.616 91.822,212.315 91.758 C 215.014 91.695,212.806 91.643,207.407 91.643 C 202.009 91.643,199.801 91.695,202.500 91.758 M151.759 92.499 C 154.458 92.562,158.875 92.562,161.574 92.499 C 164.273 92.436,162.065 92.384,156.667 92.384 C 151.269 92.384,149.060 92.436,151.759 92.499 M131.759 92.868 C 133.440 92.937,136.190 92.937,137.870 92.868 C 139.551 92.800,138.176 92.743,134.815 92.743 C 131.454 92.743,130.079 92.800,131.759 92.868 M242.222 93.960 C 249.057 94.225,255.927 94.236,255.927 93.981 C 255.926 93.829,252.218 93.737,247.685 93.778 C 243.153 93.819,240.694 93.901,242.222 93.960 M219.167 94.351 C 221.866 94.414,226.282 94.414,228.981 94.351 C 231.681 94.288,229.472 94.236,224.074 94.236 C 218.676 94.236,216.468 94.288,219.167 94.351 M196.389 94.721 C 198.579 94.786,202.162 94.786,204.352 94.721 C 206.542 94.655,204.750 94.602,200.370 94.602 C 195.991 94.602,194.199 94.655,196.389 94.721 M168.426 95.092 C 171.125 95.155,175.542 95.155,178.241 95.092 C 180.940 95.028,178.731 94.977,173.333 94.977 C 167.935 94.977,165.727 95.028,168.426 95.092 M143.034 95.462 C 145.619 95.525,149.952 95.526,152.663 95.462 C 155.374 95.399,153.259 95.347,147.963 95.347 C 142.667 95.346,140.448 95.398,143.034 95.462 M129.727 95.821 C 130.290 95.906,131.124 95.904,131.579 95.816 C 132.035 95.728,131.574 95.659,130.556 95.661 C 129.537 95.664,129.164 95.736,129.727 95.821 M247.130 101.524 C 245.867 102.333,245.459 102.875,246.574 102.262 C 247.424 101.795,248.755 100.766,248.519 100.759 C 248.417 100.756,247.792 101.100,247.130 101.524 M251.204 102.265 C 249.941 103.073,249.533 103.616,250.648 103.003 C 251.498 102.536,252.829 101.507,252.593 101.500 C 252.491 101.496,251.866 101.841,251.204 102.265 M240.833 105.598 C 239.571 106.407,239.162 106.950,240.278 106.336 C 241.128 105.869,242.459 104.840,242.222 104.833 C 242.120 104.830,241.495 105.174,240.833 105.598 M244.907 106.339 C 243.645 107.147,243.236 107.690,244.352 107.077 C 245.202 106.610,246.533 105.581,246.296 105.574 C 246.194 105.571,245.569 105.915,244.907 106.339 M210.463 125.228 C 209.201 126.036,208.792 126.579,209.907 125.966 C 210.757 125.499,212.088 124.470,211.852 124.462 C 211.750 124.459,211.125 124.804,210.463 125.228 M214.537 125.969 C 213.275 126.777,212.866 127.320,213.981 126.707 C 214.831 126.240,216.163 125.210,215.926 125.203 C 215.824 125.200,215.199 125.545,214.537 125.969 M208.241 130.043 C 206.978 130.851,206.570 131.394,207.685 130.781 C 208.535 130.314,209.866 129.284,209.630 129.277 C 209.528 129.274,208.903 129.619,208.241 130.043 M200.370 147.333 L 200.555 156.852 200.654 147.618 C 200.709 142.539,200.626 138.255,200.470 138.099 C 200.313 137.942,200.268 142.097,200.370 147.333 M170.468 143.969 C 171.031 144.055,171.864 144.052,172.320 143.964 C 172.775 143.877,172.315 143.807,171.296 143.810 C 170.278 143.812,169.905 143.884,170.468 143.969 M165.463 145.027 C 164.903 145.331,164.444 145.662,164.444 145.762 C 164.444 145.863,164.903 145.714,165.463 145.431 C 166.023 145.148,166.731 144.823,167.037 144.710 C 167.531 144.526,167.531 144.501,167.037 144.489 C 166.731 144.481,166.023 144.723,165.463 145.027 M75.470 149.528 C 76.135 149.610,77.135 149.608,77.692 149.524 C 78.248 149.439,77.704 149.372,76.481 149.374 C 75.259 149.376,74.804 149.445,75.470 149.528 M203.487 155.185 L 203.519 157.593 206.760 157.616 L 210.002 157.639 206.870 157.509 L 203.738 157.379 203.597 155.078 L 203.456 152.778 203.487 155.185 M157.518 157.407 C 157.518 158.528,157.588 158.986,157.673 158.426 C 157.758 157.866,157.758 156.949,157.673 156.389 C 157.588 155.829,157.518 156.287,157.518 157.407 M184.569 156.296 L 184.630 157.222 189.723 157.239 L 194.816 157.255 189.840 157.136 C 185.043 157.021,184.857 156.987,184.686 156.193 C 184.533 155.486,184.517 155.500,184.569 156.296 M314.259 157.037 L 312.037 157.283 314.145 157.345 C 315.304 157.379,316.356 157.241,316.481 157.037 C 316.607 156.833,316.659 156.695,316.596 156.729 C 316.533 156.763,315.481 156.902,314.259 157.037 M199.444 157.407 L 198.333 157.690 199.330 157.734 C 199.878 157.758,200.430 157.611,200.556 157.407 C 200.681 157.204,200.733 157.057,200.670 157.081 C 200.607 157.105,200.056 157.252,199.444 157.407 M244.169 157.407 C 244.300 157.887,246.035 157.964,256.883 157.971 L 269.444 157.978 257.056 157.873 C 247.740 157.794,244.587 157.654,244.342 157.310 C 244.105 156.975,244.058 157.001,244.169 157.407 M291.805 157.510 C 291.964 157.668,294.747 157.751,297.991 157.694 L 303.889 157.590 297.703 157.406 C 294.300 157.305,291.646 157.352,291.805 157.510 M280.480 157.683 C 282.068 157.753,284.568 157.752,286.035 157.682 C 287.503 157.612,286.204 157.555,283.148 157.556 C 280.093 157.556,278.892 157.613,280.480 157.683 M214.537 158.043 C 215.097 158.128,216.014 158.128,216.574 158.043 C 217.134 157.958,216.676 157.889,215.556 157.889 C 214.435 157.889,213.977 157.958,214.537 158.043 M191.406 160.276 C 193.097 160.345,195.763 160.344,197.332 160.275 C 198.901 160.206,197.519 160.149,194.259 160.150 C 191.000 160.150,189.716 160.207,191.406 160.276 M302.593 160.257 C 309.397 160.521,316.583 160.532,316.425 160.278 C 316.330 160.125,312.554 160.034,308.034 160.075 C 303.513 160.116,301.065 160.198,302.593 160.257 M203.417 167.315 L 203.501 174.259 203.611 167.509 L 203.720 160.759 209.545 160.647 L 215.370 160.535 209.352 160.453 L 203.333 160.370 203.417 167.315 M271.574 160.648 C 274.986 160.709,280.569 160.709,283.981 160.648 C 287.394 160.586,284.602 160.536,277.778 160.536 C 270.954 160.536,268.162 160.586,271.574 160.648 M247.500 161.017 C 249.282 161.084,252.199 161.084,253.981 161.017 C 255.764 160.949,254.306 160.893,250.741 160.893 C 247.176 160.893,245.718 160.949,247.500 161.017 M73.704 165.539 C 74.009 165.745,74.579 165.917,74.969 165.920 C 75.917 165.928,75.621 165.716,74.259 165.411 C 73.448 165.230,73.298 165.264,73.704 165.539 M323.618 166.935 C 324.283 167.018,325.283 167.016,325.840 166.931 C 326.397 166.847,325.852 166.779,324.630 166.781 C 323.407 166.784,322.952 166.853,323.618 166.935 M168.426 171.002 C 168.884 171.090,169.634 171.090,170.093 171.002 C 170.551 170.914,170.176 170.842,169.259 170.842 C 168.343 170.842,167.968 170.914,168.426 171.002 M172.134 171.003 C 172.595 171.091,173.261 171.088,173.615 170.995 C 173.970 170.903,173.593 170.830,172.778 170.834 C 171.963 170.838,171.673 170.914,172.134 171.003 M229.907 173.595 C 230.366 173.683,231.116 173.683,231.574 173.595 C 232.032 173.506,231.657 173.434,230.741 173.434 C 229.824 173.434,229.449 173.506,229.907 173.595 M264.727 173.595 C 265.187 173.684,265.854 173.681,266.208 173.588 C 266.562 173.495,266.185 173.423,265.370 173.427 C 264.556 173.431,264.266 173.507,264.727 173.595 M271.575 179.815 C 271.579 180.630,271.655 180.919,271.743 180.459 C 271.832 179.998,271.829 179.331,271.736 178.977 C 271.643 178.623,271.571 179.000,271.575 179.815 M146.852 181.111 C 147.259 181.286,147.843 181.429,148.148 181.429 C 148.498 181.429,148.430 181.312,147.963 181.111 C 147.556 180.936,146.972 180.793,146.667 180.793 C 146.316 180.793,146.385 180.910,146.852 181.111 M254.259 181.481 C 253.792 181.682,253.724 181.800,254.074 181.800 C 254.380 181.800,254.963 181.657,255.370 181.481 C 255.837 181.281,255.906 181.163,255.556 181.163 C 255.250 181.163,254.667 181.306,254.259 181.481 M250.556 182.593 C 250.089 182.793,250.020 182.911,250.370 182.911 C 250.676 182.911,251.259 182.768,251.667 182.593 C 252.134 182.392,252.202 182.274,251.852 182.274 C 251.546 182.274,250.963 182.418,250.556 182.593 M142.384 183.796 L 141.296 185.000 142.500 183.912 C 143.622 182.898,143.874 182.593,143.588 182.593 C 143.524 182.593,142.982 183.134,142.384 183.796 M270.741 182.812 C 270.741 183.001,274.199 186.570,278.426 190.744 L 286.111 198.333 278.519 190.569 C 274.343 186.299,270.884 182.730,270.833 182.637 C 270.782 182.545,270.741 182.623,270.741 182.812 M257.963 183.333 C 257.019 183.739,257.993 183.739,259.259 183.333 C 260.004 183.095,260.040 183.035,259.444 183.026 C 259.037 183.020,258.370 183.158,257.963 183.333 M198.430 183.595 C 198.891 183.684,199.558 183.681,199.912 183.588 C 200.266 183.495,199.889 183.423,199.074 183.427 C 198.259 183.431,197.970 183.507,198.430 183.595 M146.852 184.074 C 147.259 184.249,147.843 184.392,148.148 184.392 C 148.498 184.392,148.430 184.275,147.963 184.074 C 147.556 183.899,146.972 183.756,146.667 183.756 C 146.316 183.756,146.385 183.873,146.852 184.074 M194.537 184.616 C 193.468 185.114,192.593 185.617,192.593 185.733 C 192.593 185.850,193.119 185.673,193.761 185.340 C 194.404 185.008,195.529 184.515,196.261 184.246 C 196.994 183.976,197.343 183.746,197.037 183.733 C 196.731 183.721,195.606 184.118,194.537 184.616 M254.259 184.444 C 253.792 184.645,253.724 184.763,254.074 184.763 C 254.380 184.763,254.963 184.620,255.370 184.444 C 255.837 184.244,255.906 184.126,255.556 184.126 C 255.250 184.126,254.667 184.269,254.259 184.444 M135.719 184.973 C 136.114 185.293,136.781 185.541,137.200 185.524 C 137.812 185.498,137.767 185.433,136.973 185.193 C 136.429 185.029,135.763 184.781,135.492 184.642 C 135.221 184.503,135.324 184.652,135.719 184.973 M240.556 185.556 C 240.089 185.756,240.020 185.874,240.370 185.874 C 240.676 185.874,241.259 185.731,241.667 185.556 C 242.134 185.355,242.202 185.237,241.852 185.237 C 241.546 185.237,240.963 185.380,240.556 185.556 M268.519 185.441 C 268.824 185.549,271.574 188.078,274.630 191.060 L 280.185 196.481 274.634 190.833 C 271.581 187.727,268.831 185.198,268.523 185.214 C 268.028 185.240,268.028 185.267,268.519 185.441 M264.727 186.188 C 265.187 186.276,265.854 186.273,266.208 186.180 C 266.562 186.088,266.185 186.015,265.370 186.019 C 264.556 186.023,264.266 186.099,264.727 186.188 M165.000 186.667 C 165.407 186.842,165.991 186.985,166.296 186.985 C 166.646 186.985,166.578 186.867,166.111 186.667 C 165.704 186.492,165.120 186.348,164.815 186.348 C 164.465 186.348,164.533 186.466,165.000 186.667 M210.741 186.783 C 210.741 186.846,211.282 187.388,211.944 187.986 L 213.148 189.074 212.060 187.870 C 211.046 186.748,210.741 186.496,210.741 186.783 M244.259 187.407 C 243.792 187.608,243.724 187.726,244.074 187.726 C 244.380 187.726,244.963 187.582,245.370 187.407 C 245.837 187.207,245.906 187.089,245.556 187.089 C 245.250 187.089,244.667 187.232,244.259 187.407 M165.000 189.630 C 165.407 189.805,165.991 189.948,166.296 189.948 C 166.646 189.948,166.578 189.830,166.111 189.630 C 165.704 189.455,165.120 189.311,164.815 189.311 C 164.465 189.311,164.533 189.429,165.000 189.630 M226.852 189.630 C 226.385 189.830,226.316 189.948,226.667 189.948 C 226.972 189.948,227.556 189.805,227.963 189.630 C 228.430 189.429,228.498 189.311,228.148 189.311 C 227.843 189.311,227.259 189.455,226.852 189.630 M178.333 190.741 C 178.741 190.916,179.324 191.059,179.630 191.059 C 179.980 191.059,179.911 190.941,179.444 190.741 C 179.037 190.566,178.454 190.422,178.148 190.422 C 177.798 190.422,177.866 190.540,178.333 190.741 M223.148 190.741 C 222.681 190.941,222.613 191.059,222.963 191.059 C 223.269 191.059,223.852 190.916,224.259 190.741 C 224.726 190.540,224.795 190.422,224.444 190.422 C 224.139 190.422,223.556 190.566,223.148 190.741 M169.815 191.111 C 170.222 191.286,170.806 191.429,171.111 191.429 C 171.461 191.429,171.393 191.312,170.926 191.111 C 170.519 190.936,169.935 190.793,169.630 190.793 C 169.279 190.793,169.348 190.910,169.815 191.111 M230.556 191.481 C 230.089 191.682,230.020 191.800,230.370 191.800 C 230.676 191.800,231.259 191.657,231.667 191.481 C 232.134 191.281,232.202 191.163,231.852 191.163 C 231.546 191.163,230.963 191.306,230.556 191.481 M183.148 192.222 C 183.556 192.397,184.139 192.541,184.444 192.541 C 184.795 192.541,184.726 192.423,184.259 192.222 C 183.852 192.047,183.269 191.904,182.963 191.904 C 182.613 191.904,182.681 192.022,183.148 192.222 M226.852 192.593 C 226.385 192.793,226.316 192.911,226.667 192.911 C 226.972 192.911,227.556 192.768,227.963 192.593 C 228.430 192.392,228.498 192.274,228.148 192.274 C 227.843 192.274,227.259 192.418,226.852 192.593 M178.333 193.704 C 178.741 193.879,179.324 194.022,179.630 194.022 C 179.980 194.022,179.911 193.904,179.444 193.704 C 179.037 193.529,178.454 193.385,178.148 193.385 C 177.798 193.385,177.866 193.503,178.333 193.704 M183.148 195.185 C 183.556 195.360,184.139 195.503,184.444 195.503 C 184.795 195.503,184.726 195.386,184.259 195.185 C 183.852 195.010,183.269 194.867,182.963 194.867 C 182.613 194.867,182.681 194.985,183.148 195.185 M216.852 195.556 C 216.385 195.756,216.316 195.874,216.667 195.874 C 216.972 195.874,217.556 195.731,217.963 195.556 C 218.430 195.355,218.498 195.237,218.148 195.237 C 217.843 195.237,217.259 195.380,216.852 195.556 M185.300 199.074 C 185.302 200.296,185.371 200.752,185.454 200.086 C 185.536 199.420,185.534 198.420,185.450 197.864 C 185.365 197.307,185.298 197.852,185.300 199.074 M216.411 199.074 C 216.413 200.296,216.482 200.752,216.565 200.086 C 216.647 199.420,216.645 198.420,216.561 197.864 C 216.476 197.307,216.409 197.852,216.411 199.074 M151.204 200.626 C 151.560 200.719,152.144 200.719,152.500 200.626 C 152.856 200.533,152.565 200.456,151.852 200.456 C 151.139 200.456,150.847 200.533,151.204 200.626 M145.304 202.218 C 144.250 202.823,143.261 203.521,143.108 203.769 C 142.955 204.017,143.347 203.851,143.980 203.400 C 144.613 202.949,145.852 202.254,146.732 201.854 C 147.613 201.454,148.083 201.125,147.778 201.123 C 147.472 201.120,146.359 201.613,145.304 202.218 M246.019 202.122 C 246.782 202.202,248.032 202.202,248.796 202.122 C 249.560 202.042,248.935 201.976,247.407 201.976 C 245.880 201.976,245.255 202.042,246.019 202.122 M294.630 210.741 C 299.108 215.222,302.855 218.889,302.957 218.889 C 303.059 218.889,299.478 215.222,295.000 210.741 C 290.522 206.259,286.775 202.593,286.673 202.593 C 286.571 202.593,290.152 206.259,294.630 210.741 M160.000 203.449 C 160.000 203.513,160.542 204.055,161.204 204.653 L 162.407 205.741 161.320 204.537 C 160.306 203.415,160.000 203.163,160.000 203.449 M300.556 212.593 C 304.830 216.870,308.410 220.370,308.512 220.370 C 308.614 220.370,305.200 216.870,300.926 212.593 C 296.652 208.315,293.071 204.815,292.970 204.815 C 292.868 204.815,296.281 208.315,300.556 212.593 M188.876 208.997 C 189.693 209.924,189.735 210.117,189.279 210.849 C 188.814 211.596,188.823 211.623,189.385 211.158 C 190.250 210.443,190.154 209.895,188.981 208.861 L 187.963 207.963 188.876 208.997 M192.222 212.034 C 192.222 212.285,195.231 213.782,195.398 213.614 C 195.476 213.537,194.793 213.110,193.881 212.667 C 192.969 212.224,192.222 211.939,192.222 212.034 M233.815 215.556 C 233.815 216.676,233.884 217.134,233.969 216.574 C 234.054 216.014,234.054 215.097,233.969 214.537 C 233.884 213.977,233.815 214.435,233.815 215.556 M260.852 215.556 C 260.852 216.676,260.921 217.134,261.006 216.574 C 261.091 216.014,261.091 215.097,261.006 214.537 C 260.921 213.977,260.852 214.435,260.852 215.556 M200.093 214.710 C 200.653 214.795,201.569 214.795,202.130 214.710 C 202.690 214.625,202.231 214.555,201.111 214.555 C 199.991 214.555,199.532 214.625,200.093 214.710 M320.833 227.302 C 321.394 227.387,322.310 227.387,322.870 227.302 C 323.431 227.217,322.972 227.148,321.852 227.148 C 320.731 227.148,320.273 227.217,320.833 227.302 M324.444 227.672 C 324.750 227.785,325.333 228.031,325.741 228.219 C 326.470 228.554,326.470 228.550,325.763 227.983 C 325.367 227.667,324.784 227.421,324.466 227.437 C 323.968 227.462,323.965 227.494,324.444 227.672 M326.667 228.634 C 326.667 228.698,327.208 229.240,327.870 229.838 L 329.074 230.926 327.986 229.722 C 326.972 228.600,326.667 228.348,326.667 228.634 M314.180 230.111 C 314.631 230.580,315.068 230.914,315.152 230.854 C 315.368 230.699,314.021 229.259,313.660 229.259 C 313.495 229.259,313.729 229.643,314.180 230.111 M330.101 235.556 C 330.101 236.472,330.173 236.847,330.261 236.389 C 330.350 235.931,330.350 235.181,330.261 234.722 C 330.173 234.264,330.101 234.639,330.101 235.556 M83.580 250.988 C 83.444 251.123,83.336 251.415,83.339 251.636 C 83.342 251.864,83.475 251.831,83.648 251.559 C 83.883 251.188,85.701 251.106,91.791 251.189 C 96.102 251.248,99.630 251.171,99.630 251.019 C 99.630 250.675,83.923 250.645,83.580 250.988 M82.407 256.118 C 82.815 256.450,83.481 256.885,83.889 257.085 L 84.630 257.448 83.889 256.845 C 83.481 256.513,82.815 256.078,82.407 255.878 L 81.667 255.515 82.407 256.118 M87.593 256.118 C 88.000 256.450,88.667 256.885,89.074 257.085 L 89.815 257.448 89.074 256.845 C 88.667 256.513,88.000 256.078,87.593 255.878 L 86.852 255.515 87.593 256.118 M70.226 256.362 C 70.498 256.802,72.588 257.846,72.920 257.708 C 73.073 257.644,72.486 257.246,71.616 256.823 C 70.746 256.399,70.121 256.192,70.226 256.362 M78.903 256.902 C 77.994 257.383,77.494 257.777,77.792 257.776 C 78.367 257.775,80.741 256.439,80.741 256.117 C 80.741 256.012,80.699 255.948,80.648 255.976 C 80.597 256.003,79.812 256.420,78.903 256.902 M74.542 258.044 C 75.105 258.129,75.938 258.126,76.394 258.038 C 76.850 257.951,76.389 257.881,75.370 257.884 C 74.352 257.886,73.979 257.958,74.542 258.044 M80.554 278.892 C 80.119 279.596,81.342 279.637,99.815 279.537 L 118.333 279.437 99.515 279.348 C 87.086 279.289,80.775 279.134,80.926 278.889 C 81.052 278.685,81.071 278.519,80.970 278.519 C 80.868 278.519,80.681 278.686,80.554 278.892 M319.039 278.832 C 319.237 279.153,313.375 279.282,295.485 279.349 L 271.667 279.439 295.349 279.537 C 317.344 279.628,320.570 279.514,319.234 278.688 C 318.938 278.505,318.868 278.556,319.039 278.832 M123.704 279.399 C 123.704 279.476,123.986 279.768,124.330 280.047 C 124.756 280.393,124.868 280.407,124.679 280.093 C 124.458 279.725,127.402 279.630,138.912 279.630 C 152.393 279.630,153.388 279.673,152.916 280.245 C 152.450 280.808,152.478 280.816,153.241 280.341 C 154.863 279.330,153.920 279.259,138.889 279.259 C 130.537 279.259,123.704 279.322,123.704 279.399 M170.741 279.531 C 201.248 279.786,224.815 279.789,224.815 279.537 C 224.815 279.384,210.023 279.298,191.944 279.346 C 173.866 279.394,164.324 279.478,170.741 279.531 M246.802 279.537 C 264.994 279.631,265.985 279.670,265.512 280.281 C 265.111 280.799,265.175 280.787,265.840 280.220 C 266.295 279.832,266.667 279.457,266.667 279.387 C 266.667 279.317,257.875 279.299,247.130 279.348 L 227.593 279.438 246.802 279.537 M154.259 282.810 L 153.148 283.765 154.352 282.968 C 155.014 282.530,155.556 282.100,155.556 282.012 C 155.556 281.735,155.399 281.831,154.259 282.810 M125.000 283.896 C 125.407 284.227,126.074 284.662,126.481 284.862 L 127.222 285.226 126.481 284.623 C 126.074 284.291,125.407 283.856,125.000 283.656 L 124.259 283.292 125.000 283.896 M130.185 283.896 C 130.593 284.227,131.259 284.662,131.667 284.862 L 132.407 285.226 131.667 284.623 C 131.259 284.291,130.593 283.856,130.185 283.656 L 129.444 283.292 130.185 283.896 M133.889 297.255 L 132.778 298.209 133.981 297.413 C 134.644 296.975,135.185 296.544,135.185 296.456 C 135.185 296.179,135.028 296.276,133.889 297.255 M151.667 301.303 C 152.074 301.635,152.741 302.070,153.148 302.270 L 153.889 302.633 153.148 302.030 C 152.741 301.699,152.074 301.264,151.667 301.064 L 150.926 300.700 151.667 301.303 M156.852 301.303 C 157.259 301.635,157.926 302.070,158.333 302.270 L 159.074 302.633 158.333 302.030 C 157.926 301.699,157.259 301.264,156.852 301.064 L 156.111 300.700 156.852 301.303 M116.012 302.222 C 116.012 302.935,116.088 303.227,116.181 302.870 C 116.274 302.514,116.274 301.931,116.181 301.574 C 116.088 301.218,116.012 301.509,116.012 302.222 M160.185 306.859 C 160.593 307.190,161.259 307.625,161.667 307.825 L 162.407 308.189 161.667 307.586 C 161.259 307.254,160.593 306.819,160.185 306.619 L 159.444 306.255 160.185 306.859 M165.370 306.859 C 165.778 307.190,166.444 307.625,166.852 307.825 L 167.593 308.189 166.852 307.586 C 166.444 307.254,165.778 306.819,165.370 306.619 L 164.630 306.255 165.370 306.859 M281.866 309.494 C 280.957 309.976,280.457 310.370,280.755 310.369 C 281.330 310.368,283.704 309.031,283.704 308.709 C 283.704 308.604,283.662 308.541,283.611 308.568 C 283.560 308.596,282.775 309.012,281.866 309.494 M274.608 309.794 C 275.003 310.111,275.587 310.357,275.904 310.341 C 276.403 310.316,276.406 310.284,275.926 310.106 C 275.620 309.993,275.037 309.747,274.630 309.559 C 273.901 309.224,273.900 309.228,274.608 309.794 M123.426 310.636 C 123.986 310.721,124.903 310.721,125.463 310.636 C 126.023 310.551,125.565 310.481,124.444 310.481 C 123.324 310.481,122.866 310.551,123.426 310.636 M277.505 310.636 C 278.068 310.721,278.901 310.719,279.357 310.631 C 279.812 310.543,279.352 310.474,278.333 310.476 C 277.315 310.479,276.942 310.551,277.505 310.636 M168.704 312.414 C 169.111 312.746,169.778 313.181,170.185 313.381 L 170.926 313.745 170.185 313.141 C 169.778 312.810,169.111 312.375,168.704 312.175 L 167.963 311.811 168.704 312.414 M173.889 312.414 C 174.296 312.746,174.963 313.181,175.370 313.381 L 176.111 313.745 175.370 313.141 C 174.963 312.810,174.296 312.375,173.889 312.175 L 173.148 311.811 173.889 312.414 M177.222 317.970 C 177.630 318.301,178.296 318.736,178.704 318.936 L 179.444 319.300 178.704 318.697 C 178.296 318.365,177.630 317.930,177.222 317.730 L 176.481 317.367 177.222 317.970 M182.407 317.970 C 182.815 318.301,183.481 318.736,183.889 318.936 L 184.630 319.300 183.889 318.697 C 183.481 318.365,182.815 317.930,182.407 317.730 L 181.667 317.367 182.407 317.970 M185.741 323.525 C 186.148 323.857,186.815 324.292,187.222 324.492 L 187.963 324.856 187.222 324.253 C 186.815 323.921,186.148 323.486,185.741 323.286 L 185.000 322.922 185.741 323.525 M190.926 323.525 C 191.333 323.857,192.000 324.292,192.407 324.492 L 193.148 324.856 192.407 324.253 C 192.000 323.921,191.333 323.486,190.926 323.286 L 190.185 322.922 190.926 323.525 M209.979 326.137 C 209.713 326.457,209.193 326.639,208.822 326.542 C 208.451 326.445,208.241 326.517,208.355 326.701 C 208.697 327.255,209.473 327.083,210.185 326.296 C 210.554 325.889,210.767 325.556,210.658 325.556 C 210.550 325.556,210.244 325.817,209.979 326.137 M194.259 329.056 C 194.667 329.380,195.208 329.924,195.463 330.264 C 195.839 330.766,195.926 330.779,195.926 330.336 C 195.926 330.035,195.384 329.492,194.722 329.128 C 193.840 328.643,193.716 328.624,194.259 329.056 M196.667 338.264 C 196.667 338.328,197.208 338.869,197.870 339.468 L 199.074 340.556 197.986 339.352 C 196.972 338.230,196.667 337.978,196.667 338.264 M207.051 340.605 C 206.142 341.087,205.642 341.481,205.940 341.480 C 206.515 341.479,208.889 340.142,208.889 339.820 C 208.889 339.715,208.847 339.652,208.796 339.679 C 208.745 339.707,207.960 340.123,207.051 340.605 M202.690 341.747 C 203.253 341.832,204.087 341.830,204.542 341.742 C 204.998 341.654,204.537 341.585,203.519 341.587 C 202.500 341.590,202.127 341.662,202.690 341.747 " stroke="none" fill="#8dbde2" fill-rule="evenodd"></path><path id="path4" d="M241.589 91.016 C 242.973 91.087,245.140 91.087,246.404 91.015 C 247.669 90.942,246.537 90.884,243.889 90.885 C 241.241 90.885,240.206 90.944,241.589 91.016 M189.444 91.481 L 188.333 91.764 189.330 91.808 C 189.878 91.832,190.430 91.685,190.556 91.481 C 190.681 91.278,190.733 91.131,190.670 91.155 C 190.607 91.179,190.056 91.326,189.444 91.481 M216.404 91.386 C 217.788 91.458,219.954 91.457,221.219 91.385 C 222.484 91.313,221.352 91.254,218.704 91.255 C 216.056 91.256,215.021 91.315,216.404 91.386 M194.729 91.750 C 195.395 91.832,196.395 91.831,196.951 91.746 C 197.508 91.662,196.963 91.594,195.741 91.596 C 194.519 91.598,194.063 91.667,194.729 91.750 M165.664 92.127 C 167.047 92.198,169.214 92.198,170.478 92.126 C 171.743 92.054,170.611 91.995,167.963 91.996 C 165.315 91.996,164.280 92.055,165.664 92.127 M140.108 92.497 C 141.491 92.569,143.658 92.568,144.923 92.496 C 146.187 92.424,145.056 92.365,142.407 92.366 C 139.759 92.367,138.725 92.426,140.108 92.497 M236.034 94.349 C 237.417 94.421,239.584 94.420,240.849 94.348 C 242.113 94.276,240.981 94.217,238.333 94.218 C 235.685 94.219,234.650 94.278,236.034 94.349 M210.478 94.719 C 211.862 94.791,214.029 94.790,215.293 94.718 C 216.558 94.646,215.426 94.588,212.778 94.588 C 210.130 94.589,209.095 94.648,210.478 94.719 M184.548 95.088 C 185.522 95.164,187.022 95.163,187.882 95.085 C 188.741 95.008,187.944 94.945,186.111 94.946 C 184.278 94.947,183.574 95.011,184.548 95.088 M159.738 95.460 C 161.121 95.532,163.288 95.531,164.552 95.459 C 165.817 95.387,164.685 95.328,162.037 95.329 C 159.389 95.330,158.354 95.389,159.738 95.460 M134.552 95.831 C 135.936 95.902,138.103 95.901,139.367 95.829 C 140.632 95.757,139.500 95.699,136.852 95.699 C 134.204 95.700,133.169 95.759,134.552 95.831 M269.421 99.722 L 268.333 100.926 269.537 99.838 C 270.199 99.240,270.741 98.698,270.741 98.634 C 270.741 98.348,270.435 98.600,269.421 99.722 M203.481 147.778 C 203.481 150.731,203.538 151.940,203.608 150.463 C 203.679 148.986,203.679 146.569,203.608 145.093 C 203.538 143.616,203.481 144.824,203.481 147.778 M230.282 146.188 C 230.743 146.276,231.409 146.273,231.764 146.180 C 232.118 146.088,231.741 146.015,230.926 146.019 C 230.111 146.023,229.821 146.099,230.282 146.188 M179.630 146.783 C 179.630 146.846,180.171 147.388,180.833 147.986 L 182.037 149.074 180.949 147.870 C 179.935 146.748,179.630 146.496,179.630 146.783 M323.986 150.262 C 324.447 150.351,325.113 150.347,325.467 150.254 C 325.821 150.162,325.444 150.089,324.630 150.093 C 323.815 150.098,323.525 150.173,323.986 150.262 M197.593 157.037 L 194.630 157.272 197.478 157.339 C 199.056 157.377,200.429 157.242,200.556 157.037 C 200.681 156.833,200.733 156.697,200.670 156.735 C 200.607 156.772,199.222 156.908,197.593 157.037 M302.685 157.313 C 304.468 157.381,307.384 157.381,309.167 157.313 C 310.949 157.245,309.491 157.189,305.926 157.189 C 302.361 157.189,300.903 157.245,302.685 157.313 M211.399 157.679 C 212.270 157.757,213.603 157.756,214.362 157.677 C 215.120 157.597,214.407 157.533,212.778 157.534 C 211.148 157.536,210.528 157.601,211.399 157.679 M267.852 157.683 C 269.624 157.751,272.624 157.751,274.518 157.684 C 276.413 157.616,274.963 157.561,271.296 157.560 C 267.630 157.560,266.080 157.615,267.852 157.683 M185.470 160.268 C 186.135 160.351,187.135 160.349,187.692 160.265 C 188.248 160.180,187.704 160.113,186.481 160.115 C 185.259 160.117,184.804 160.186,185.470 160.268 M199.245 160.578 L 200.342 160.786 200.472 163.912 L 200.602 167.039 200.579 163.797 L 200.556 160.556 199.352 160.463 C 198.191 160.374,198.187 160.378,199.245 160.578 M296.019 160.646 C 297.597 160.715,300.181 160.715,301.759 160.646 C 303.338 160.576,302.046 160.519,298.889 160.519 C 295.731 160.519,294.440 160.576,296.019 160.646 M213.704 160.949 C 215.003 161.236,217.331 161.287,217.169 161.025 C 217.072 160.869,216.128 160.760,215.071 160.784 C 214.013 160.807,213.398 160.882,213.704 160.949 M260.093 161.017 C 261.875 161.084,264.792 161.084,266.574 161.017 C 268.356 160.949,266.898 160.893,263.333 160.893 C 259.769 160.893,258.310 160.949,260.093 161.017 M75.838 166.188 C 76.298 166.276,76.965 166.273,77.319 166.180 C 77.673 166.088,77.296 166.015,76.481 166.019 C 75.667 166.023,75.377 166.099,75.838 166.188 M170.463 171.366 C 170.819 171.460,171.403 171.460,171.759 171.366 C 172.116 171.273,171.824 171.197,171.111 171.197 C 170.398 171.197,170.106 171.273,170.463 171.366 M137.870 185.811 C 138.227 185.904,138.810 185.904,139.167 185.811 C 139.523 185.718,139.231 185.641,138.519 185.641 C 137.806 185.641,137.514 185.718,137.870 185.811 M287.037 199.074 C 290.190 202.231,292.852 204.815,292.954 204.815 C 293.056 204.815,290.560 202.231,287.407 199.074 C 284.255 195.917,281.592 193.333,281.490 193.333 C 281.389 193.333,283.885 195.917,287.037 199.074 M286.481 202.963 C 290.144 206.630,293.224 209.630,293.326 209.630 C 293.427 209.630,290.514 206.630,286.852 202.963 C 283.189 199.296,280.110 196.296,280.008 196.296 C 279.906 196.296,282.819 199.296,286.481 202.963 M306.667 218.333 C 307.773 219.454,308.762 220.370,308.864 220.370 C 308.965 220.370,308.143 219.454,307.037 218.333 C 305.931 217.213,304.942 216.296,304.840 216.296 C 304.738 216.296,305.560 217.213,306.667 218.333 M83.576 247.870 C 83.670 248.023,87.154 248.148,91.318 248.148 C 95.482 248.148,98.889 248.023,98.889 247.870 C 98.889 247.718,95.405 247.593,91.146 247.593 C 86.888 247.593,83.481 247.718,83.576 247.870 M118.310 296.389 L 117.222 297.593 118.426 296.505 C 119.548 295.491,119.800 295.185,119.514 295.185 C 119.450 295.185,118.908 295.727,118.310 296.389 " stroke="none" fill="#aacfec" fill-rule="evenodd"></path></g></svg>